<?xml version="1.0" encoding="UTF-8" standalone="no"?>
<!-- Created with Inkscape (http://www.inkscape.org/) -->

<svg
   width="285.75mm"
   height="105.83333mm"
   viewBox="0 0 285.74999 105.83333"
   version="1.1"
   id="svg307204"
   inkscape:version="1.1.2 (1:1.1+202202050950+0a00cf5339)"
   sodipodi:docname="overview.svg"
   inkscape:export-filename="/home/gefux/bitmap.png"
   inkscape:export-xdpi="150"
   inkscape:export-ydpi="150"
   xmlns:inkscape="http://www.inkscape.org/namespaces/inkscape"
   xmlns:sodipodi="http://sodipodi.sourceforge.net/DTD/sodipodi-0.dtd"
   xmlns="http://www.w3.org/2000/svg"
   xmlns:svg="http://www.w3.org/2000/svg">
  <sodipodi:namedview
     id="namedview307206"
     pagecolor="#ffffff"
     bordercolor="#666666"
     borderopacity="1.0"
     inkscape:pageshadow="2"
     inkscape:pageopacity="0.0"
     inkscape:pagecheckerboard="0"
     inkscape:document-units="mm"
     showgrid="false"
     fit-margin-top="0"
     fit-margin-left="0"
     fit-margin-right="0"
     fit-margin-bottom="0"
     inkscape:zoom="0.77593295"
     inkscape:cx="509.70899"
     inkscape:cy="74.104341"
     inkscape:window-width="1920"
     inkscape:window-height="968"
     inkscape:window-x="0"
     inkscape:window-y="27"
     inkscape:window-maximized="1"
     inkscape:current-layer="layer1"
     showguides="false"
     lock-margins="true"
     inkscape:showpageshadow="true"
     showborder="true"
     inkscape:snap-object-midpoints="true"
     inkscape:snap-text-baseline="true"
     borderlayer="true">
    <inkscape:grid
       type="xygrid"
       id="grid314818"
       originx="-15.875"
       originy="-63.500002" />
  </sodipodi:namedview>
  <defs
     id="defs307201">
    <rect
       x="110"
       y="210"
       width="570"
       height="70"
       id="rect357123" />
    <rect
       x="310"
       y="90"
       width="456.93018"
       height="184.03194"
       id="rect322230" />
    <rect
       x="310"
       y="90"
       width="456.93018"
       height="184.03194"
       id="rect408176" />
    <rect
       x="110"
       y="210"
       width="570"
       height="70"
       id="rect408178" />
    <rect
       x="310"
       y="90"
       width="456.93018"
       height="184.03194"
       id="rect434766" />
    <rect
       x="310"
       y="90"
       width="456.93018"
       height="184.03194"
       id="rect9339" />
    <rect
       x="310"
       y="90"
       width="456.93018"
       height="184.03194"
       id="rect9350" />
    <rect
       x="310"
       y="90"
       width="456.93018"
       height="184.03194"
       id="rect9590" />
    <rect
       x="310"
       y="90"
       width="456.93018"
       height="184.03194"
       id="rect9622" />
    <rect
       x="310"
       y="90"
       width="456.93018"
       height="184.03194"
       id="rect10440" />
    <rect
       x="310"
       y="90"
       width="456.93018"
       height="184.03194"
       id="rect10469" />
    <filter
       inkscape:collect="always"
       style="color-interpolation-filters:sRGB"
       id="filter10624"
       x="-0.079738174"
       y="-0.24335203"
       width="1.1594763"
       height="1.4867041">
      <feGaussianBlur
         inkscape:collect="always"
         stdDeviation="1.6279102"
         id="feGaussianBlur10626" />
    </filter>
    <filter
       inkscape:collect="always"
       style="color-interpolation-filters:sRGB"
       id="filter20008"
       x="-0.022409275"
       y="-0.068390613"
       width="1.0448186"
       height="1.1367812">
      <feGaussianBlur
         inkscape:collect="always"
         stdDeviation="0.45750092"
         id="feGaussianBlur20010" />
    </filter>
  </defs>
  <g
     inkscape:groupmode="layer"
     id="layer9"
     inkscape:label="bg"
     style="display:inline"
     transform="translate(10.33332,-39.9375)"
     sodipodi:insensitive="true">
    <path
       id="rect169705"
       style="display:inline;fill:#91c4f3;stroke-width:0.600001;stroke-linecap:round;stroke-linejoin:round"
       d="M -10.33332,34.354167 H 127.25002 V 55.520834 L -10.33332,145.77083 Z"
       sodipodi:nodetypes="ccccc" />
    <path
       id="rect169707"
       style="display:inline;fill:#c8e2f9;stroke-width:0.600001;stroke-linecap:round;stroke-linejoin:round"
       d="M 137.83335,55.520834 V 34.354167 H 275.41668 V 145.77083 Z"
       sodipodi:nodetypes="ccccc" />
    <path
       id="rect169709"
       style="display:inline;fill:#ecf5fd;stroke-width:0.600001;stroke-linecap:round;stroke-linejoin:round"
       d="m 127.25002,55.520834 h 10.58333 l 137.58333,90.249996 h -285.75 z"
       sodipodi:nodetypes="ccccc" />
    <path
       style="display:inline;fill:#59a6ed;fill-opacity:1;stroke:none;stroke-width:0.600001;stroke-linecap:round;stroke-linejoin:round;stroke-miterlimit:4;stroke-dasharray:none"
       id="path170614"
       sodipodi:type="arc"
       sodipodi:cx="132.54169"
       sodipodi:cy="34.354168"
       sodipodi:rx="42.333332"
       sodipodi:ry="42.333332"
       sodipodi:start="0"
       sodipodi:end="3.1415927"
       sodipodi:arc-type="slice"
       d="m 174.87502,34.354168 a 42.333332,42.333332 0 0 1 -21.16667,36.661741 42.333332,42.333332 0 0 1 -42.33333,-10e-7 42.333332,42.333332 0 0 1 -21.166665,-36.66174 h 42.333335 z" />
  </g>
  <g
     inkscape:groupmode="layer"
     id="layer5"
     inkscape:label="shadow"
     style="display:inline"
     transform="translate(-15.87501,-63.5)"
     sodipodi:insensitive="true">
    <g
       inkscape:groupmode="layer"
       id="layer3"
       inkscape:label="dark"
       style="display:inline;opacity:0.496488;mix-blend-mode:normal;filter:url(#filter10624)">
      <text
         xml:space="preserve"
         transform="matrix(0.15875,0,0,0.15875,83.719443,52.613812)"
         id="text10438"
         style="font-size:109.333px;line-height:1.25;font-family:sans-serif;letter-spacing:0px;word-spacing:0px;white-space:pre;shape-inside:url(#rect10440);display:inline;opacity:1;fill:#02284b;fill-opacity:1"><tspan
           x="310"
           y="186.73408"
           id="tspan88775"><tspan
             style="font-family:'EB Garamond';-inkscape-font-specification:'EB Garamond, Normal'"
             id="tspan88773">OQuPy</tspan></tspan></text>
    </g>
    <g
       inkscape:groupmode="layer"
       id="layer4"
       inkscape:label="bright"
       style="display:inline;opacity:0.263075;mix-blend-mode:normal;filter:url(#filter20008)">
      <text
         xml:space="preserve"
         transform="matrix(0.15875,0,0,0.15875,83.719443,52.613812)"
         id="text10467"
         style="font-size:109.333px;line-height:1.25;font-family:sans-serif;letter-spacing:0px;word-spacing:0px;white-space:pre;shape-inside:url(#rect10469);display:inline;opacity:1;fill:#feffff;fill-opacity:1"><tspan
           x="310"
           y="186.73408"
           id="tspan88779"><tspan
             style="font-family:'EB Garamond';-inkscape-font-specification:'EB Garamond, Normal'"
             id="tspan88777">OQuPy</tspan></tspan></text>
    </g>
  </g>
  <g
     inkscape:groupmode="layer"
     id="layer2"
     inkscape:label="Logo"
     style="display:inline;opacity:1"
     transform="translate(-15.87501,-63.5)"
     sodipodi:insensitive="true">
    <text
       xml:space="preserve"
       transform="matrix(0.15875,0,0,0.15875,84.719443,51.613812)"
       id="text322228"
       style="font-size:109.333px;line-height:1.25;font-family:sans-serif;letter-spacing:0px;word-spacing:0px;white-space:pre;shape-inside:url(#rect322230);fill:#02284b;fill-opacity:1"><tspan
         x="310"
         y="186.73408"
         id="tspan88783"><tspan
           style="font-family:'EB Garamond';-inkscape-font-specification:'EB Garamond, Normal'"
           id="tspan88781">OQuPy</tspan></tspan></text>
  </g>
  <g
     inkscape:groupmode="layer"
     id="layer1"
     inkscape:label="drawings"
     style="display:inline"
     transform="translate(10.69147,-41.247905)">
    <text
       xml:space="preserve"
       style="font-style:normal;font-variant:normal;font-weight:normal;font-stretch:normal;font-size:6.35px;line-height:1.25;font-family:'EB Garamond';-inkscape-font-specification:'EB Garamond, Normal';font-variant-ligatures:normal;font-variant-caps:normal;font-variant-numeric:normal;font-variant-east-asian:normal;text-align:end;letter-spacing:0px;word-spacing:0px;text-anchor:end;stroke-width:0.264583"
       x="269.1835"
       y="58.331238"
       id="text43075"><tspan
         sodipodi:role="line"
         id="tspan9399"
         style="font-style:normal;font-variant:normal;font-weight:normal;font-stretch:normal;font-size:6.35px;font-family:Roboto;-inkscape-font-specification:'Roboto, Normal';font-variant-ligatures:normal;font-variant-caps:normal;font-variant-numeric:normal;font-variant-east-asian:normal"
         x="269.1835"
         y="58.331238">Multiple Environments [7]:</tspan></text>
    <text
       xml:space="preserve"
       style="font-style:normal;font-variant:normal;font-weight:normal;font-stretch:normal;font-size:6.35px;line-height:1.25;font-family:'EB Garamond';-inkscape-font-specification:'EB Garamond, Normal';font-variant-ligatures:normal;font-variant-caps:normal;font-variant-numeric:normal;font-variant-east-asian:normal;text-align:end;letter-spacing:0.264583px;word-spacing:0px;text-anchor:end;stroke-width:0.264583"
       x="134.85762"
       y="100.33124"
       id="text103593"><tspan
         sodipodi:role="line"
         id="tspan13757"
         x="134.98991"
         y="100.33124"
         style="font-style:normal;font-variant:normal;font-weight:normal;font-stretch:normal;font-size:6.35px;font-family:Roboto;-inkscape-font-specification:Roboto;text-align:center;text-anchor:middle">Chain of Open Quantum Systems [8]:</tspan></text>
    <text
       xml:space="preserve"
       style="font-style:normal;font-variant:normal;font-weight:normal;font-stretch:normal;font-size:6.35px;line-height:1.25;font-family:Roboto;-inkscape-font-specification:'Roboto, Normal';font-variant-ligatures:normal;font-variant-caps:normal;font-variant-numeric:normal;font-variant-east-asian:normal;text-align:start;letter-spacing:0px;word-spacing:0px;text-anchor:start;stroke-width:0.264583"
       x="-5.692328"
       y="58.331238"
       id="text137437"><tspan
         sodipodi:role="line"
         id="tspan11475"
         x="-5.692328"
         y="58.331238"
         style="font-size:6.35px">System and Env. Dynamics [1-6]:</tspan></text>
    <path
       style="fill:none;stroke:#2b5d0a;stroke-width:1.2;stroke-linecap:round;stroke-linejoin:round;stroke-miterlimit:4;stroke-dasharray:none;stroke-opacity:1"
       d="m 33.6731,90.029156 c 1.32292,3.96875 -0.52916,4.614583 0,7.260417 2.64584,-0.529167 5.9375,0.529166 8.58334,0 -0.52917,-2.645834 1.32291,-3.291667 0,-7.260417 -2.64584,0.529167 -5.9375,-0.529167 -8.58334,0 z"
       id="path169975"
       sodipodi:nodetypes="ccccc" />
    <g
       id="g169991"
       style="stroke:#02284b;stroke-width:2;stroke-miterlimit:4;stroke-dasharray:none;stroke-opacity:1"
       transform="matrix(0.6,0,0,0.6,3.00561,48.57979)">
      <path
         style="fill:none;stroke:#02284b;stroke-width:2;stroke-linecap:round;stroke-linejoin:round;stroke-miterlimit:4;stroke-dasharray:none;stroke-opacity:1"
         d="m 43.320525,36.894992 c -3.012464,-4.256284 -12.871823,-3.622551 -12.860078,2.77731 0.01175,6.39986 7.694239,7.54366 11.018901,7.461898"
         id="path169981"
         sodipodi:nodetypes="csc" />
      <path
         style="fill:none;stroke:#02284b;stroke-width:2;stroke-linecap:round;stroke-linejoin:round;stroke-miterlimit:4;stroke-dasharray:none;stroke-opacity:1"
         d="m 40.558103,44.903389 c 3.2399,7.748995 15.003807,4.255971 16.71637,-0.251303"
         id="path169983"
         sodipodi:nodetypes="cc" />
      <path
         style="fill:none;stroke:#02284b;stroke-width:2;stroke-linecap:round;stroke-linejoin:round;stroke-miterlimit:4;stroke-dasharray:none;stroke-opacity:1"
         d="M 56.310376,42.838123 C 66.124609,57.478696 73.131174,29.02178 60.771031,34.718125"
         id="path169985"
         sodipodi:nodetypes="cc" />
      <path
         style="fill:none;stroke:#02284b;stroke-width:2;stroke-linecap:round;stroke-linejoin:round;stroke-miterlimit:4;stroke-dasharray:none;stroke-opacity:1"
         d="M 50.578723,35.189488 C 54.542916,28.641586 61.426572,30.544969 63.19821,33.561762"
         id="path169987"
         sodipodi:nodetypes="cc" />
      <path
         style="fill:none;stroke:#02284b;stroke-width:2;stroke-linecap:round;stroke-linejoin:round;stroke-miterlimit:4;stroke-dasharray:none;stroke-opacity:1"
         d="m 39.248051,33.906641 c 0.287544,-8.64894 11.893385,-8.416284 13.720934,-2.368962"
         id="path169989"
         sodipodi:nodetypes="cc" />
    </g>
    <path
       style="display:inline;opacity:1;fill:#000000;fill-opacity:1;stroke:#000000;stroke-width:0.6;stroke-linecap:round;stroke-linejoin:round;stroke-miterlimit:4;stroke-dasharray:none;stroke-opacity:1"
       d="m 37.28816,87.93389 0.27872,-2.02661 -1.53341,0.41087 1.25469,1.61574 -2.39678,-8.94488 -0.22749,2.21778 1.5334,-0.41087 -1.30591,-1.80691"
       id="path169997"
       sodipodi:nodetypes="cccccccc" />
    <path
       style="fill:none;stroke:#2b5d0a;stroke-width:1.2;stroke-linecap:round;stroke-linejoin:round;stroke-miterlimit:4;stroke-dasharray:none;stroke-opacity:1"
       d="m 193.6731,132.02916 c 1.32292,3.96875 -0.52916,4.61458 0,7.26041 2.64584,-0.52916 5.9375,0.52917 8.58334,0 -0.52917,-2.64583 1.32291,-3.29166 0,-7.26041 -2.64584,0.52916 -5.9375,-0.52917 -8.58334,0 z"
       id="path170094"
       sodipodi:nodetypes="ccccc" />
    <g
       id="g170112"
       style="stroke:#02284b;stroke-width:2;stroke-miterlimit:4;stroke-dasharray:none;stroke-opacity:1"
       transform="matrix(0.6,0,0,0.6,163.00561,90.57979)">
      <path
         style="fill:none;stroke:#02284b;stroke-width:2;stroke-linecap:round;stroke-linejoin:round;stroke-miterlimit:4;stroke-dasharray:none;stroke-opacity:1"
         d="m 43.320525,36.894992 c -3.012464,-4.256284 -12.871823,-3.622551 -12.860078,2.77731 0.01175,6.39986 7.694239,7.54366 11.018901,7.461898"
         id="path170102"
         sodipodi:nodetypes="csc" />
      <path
         style="fill:none;stroke:#02284b;stroke-width:2;stroke-linecap:round;stroke-linejoin:round;stroke-miterlimit:4;stroke-dasharray:none;stroke-opacity:1"
         d="m 40.558103,44.903389 c 3.2399,7.748995 15.003807,4.255971 16.71637,-0.251303"
         id="path170104"
         sodipodi:nodetypes="cc" />
      <path
         style="fill:none;stroke:#02284b;stroke-width:2;stroke-linecap:round;stroke-linejoin:round;stroke-miterlimit:4;stroke-dasharray:none;stroke-opacity:1"
         d="M 56.310376,42.838123 C 66.124609,57.478696 73.131174,29.02178 60.771031,34.718125"
         id="path170106"
         sodipodi:nodetypes="cc" />
      <path
         style="fill:none;stroke:#02284b;stroke-width:2;stroke-linecap:round;stroke-linejoin:round;stroke-miterlimit:4;stroke-dasharray:none;stroke-opacity:1"
         d="M 50.578723,35.189488 C 54.542916,28.641586 61.426572,30.544969 63.19821,33.561762"
         id="path170108"
         sodipodi:nodetypes="cc" />
      <path
         style="fill:none;stroke:#02284b;stroke-width:2;stroke-linecap:round;stroke-linejoin:round;stroke-miterlimit:4;stroke-dasharray:none;stroke-opacity:1"
         d="m 39.248051,33.906641 c 0.287544,-8.64894 11.893385,-8.416284 13.720934,-2.368962"
         id="path170110"
         sodipodi:nodetypes="cc" />
    </g>
    <path
       style="display:inline;opacity:1;fill:#000000;fill-opacity:1;stroke:#000000;stroke-width:0.6;stroke-linecap:round;stroke-linejoin:round;stroke-miterlimit:4;stroke-dasharray:none;stroke-opacity:1"
       d="m 197.28816,129.93389 0.27872,-2.02661 -1.53341,0.41087 1.25469,1.61574 -2.39678,-8.94488 -0.22749,2.21778 1.5334,-0.41087 -1.30591,-1.80691"
       id="path170120"
       sodipodi:nodetypes="cccccccc" />
    <path
       style="display:inline;opacity:1;fill:#000000;fill-opacity:1;stroke:#000000;stroke-width:0.6;stroke-linecap:round;stroke-linejoin:round;stroke-miterlimit:4;stroke-dasharray:none;stroke-opacity:1"
       d="m 187.71998,134.96145 -1.88542,-0.79375 v 1.5875 l 1.88542,-0.79375 h -9.26042 l 2.08333,0.79375 v -1.5875 l -2.08333,0.79375"
       id="path170122"
       sodipodi:nodetypes="cccccccc" />
    <path
       style="fill:none;stroke:#2b5d0a;stroke-width:1.2;stroke-linecap:round;stroke-linejoin:round;stroke-miterlimit:4;stroke-dasharray:none;stroke-opacity:1"
       d="m 163.6731,132.02916 c 1.32292,3.96875 -0.52916,4.61458 0,7.26041 2.64584,-0.52916 5.9375,0.52917 8.58334,0 -0.52917,-2.64583 1.32291,-3.29166 0,-7.26041 -2.64584,0.52916 -5.9375,-0.52917 -8.58334,0 z"
       id="path170124"
       sodipodi:nodetypes="ccccc" />
    <g
       id="g170142"
       style="stroke:#02284b;stroke-width:2;stroke-miterlimit:4;stroke-dasharray:none;stroke-opacity:1"
       transform="matrix(0.6,0,0,0.6,133.00561,90.57979)">
      <path
         style="fill:none;stroke:#02284b;stroke-width:2;stroke-linecap:round;stroke-linejoin:round;stroke-miterlimit:4;stroke-dasharray:none;stroke-opacity:1"
         d="m 43.320525,36.894992 c -3.012464,-4.256284 -12.871823,-3.622551 -12.860078,2.77731 0.01175,6.39986 7.694239,7.54366 11.018901,7.461898"
         id="path170132"
         sodipodi:nodetypes="csc" />
      <path
         style="fill:none;stroke:#02284b;stroke-width:2;stroke-linecap:round;stroke-linejoin:round;stroke-miterlimit:4;stroke-dasharray:none;stroke-opacity:1"
         d="m 40.558103,44.903389 c 3.2399,7.748995 15.003807,4.255971 16.71637,-0.251303"
         id="path170134"
         sodipodi:nodetypes="cc" />
      <path
         style="fill:none;stroke:#02284b;stroke-width:2;stroke-linecap:round;stroke-linejoin:round;stroke-miterlimit:4;stroke-dasharray:none;stroke-opacity:1"
         d="M 56.310376,42.838123 C 66.124609,57.478696 73.131174,29.02178 60.771031,34.718125"
         id="path170136"
         sodipodi:nodetypes="cc" />
      <path
         style="fill:none;stroke:#02284b;stroke-width:2;stroke-linecap:round;stroke-linejoin:round;stroke-miterlimit:4;stroke-dasharray:none;stroke-opacity:1"
         d="M 50.578723,35.189488 C 54.542916,28.641586 61.426572,30.544969 63.19821,33.561762"
         id="path170138"
         sodipodi:nodetypes="cc" />
      <path
         style="fill:none;stroke:#02284b;stroke-width:2;stroke-linecap:round;stroke-linejoin:round;stroke-miterlimit:4;stroke-dasharray:none;stroke-opacity:1"
         d="m 39.248051,33.906641 c 0.287544,-8.64894 11.893385,-8.416284 13.720934,-2.368962"
         id="path170140"
         sodipodi:nodetypes="cc" />
    </g>
    <path
       style="display:inline;opacity:1;fill:#000000;fill-opacity:1;stroke:#000000;stroke-width:0.6;stroke-linecap:round;stroke-linejoin:round;stroke-miterlimit:4;stroke-dasharray:none;stroke-opacity:1"
       d="m 167.28816,129.93389 0.27872,-2.02661 -1.53341,0.41087 1.25469,1.61574 -2.39678,-8.94488 -0.22749,2.21778 1.5334,-0.41087 -1.30591,-1.80691"
       id="path170150"
       sodipodi:nodetypes="cccccccc" />
    <path
       style="display:inline;opacity:1;fill:#000000;fill-opacity:1;stroke:#000000;stroke-width:0.6;stroke-linecap:round;stroke-linejoin:round;stroke-miterlimit:4;stroke-dasharray:none;stroke-opacity:1"
       d="m 157.71998,134.96145 -1.88542,-0.79375 v 1.5875 l 1.88542,-0.79375 h -9.26042 l 2.08333,0.79375 v -1.5875 l -2.08333,0.79375"
       id="path170152"
       sodipodi:nodetypes="cccccccc" />
    <path
       style="fill:none;stroke:#2b5d0a;stroke-width:1.2;stroke-linecap:round;stroke-linejoin:round;stroke-miterlimit:4;stroke-dasharray:none;stroke-opacity:1"
       d="m 133.6731,132.02916 c 1.32292,3.96875 -0.52916,4.61458 0,7.26041 2.64584,-0.52916 5.9375,0.52917 8.58334,0 -0.52917,-2.64583 1.32291,-3.29166 0,-7.26041 -2.64584,0.52916 -5.9375,-0.52917 -8.58334,0 z"
       id="path170374"
       sodipodi:nodetypes="ccccc" />
    <g
       id="g170392"
       style="stroke:#02284b;stroke-width:2;stroke-miterlimit:4;stroke-dasharray:none;stroke-opacity:1"
       transform="matrix(0.6,0,0,0.6,103.00561,90.57979)">
      <path
         style="fill:none;stroke:#02284b;stroke-width:2;stroke-linecap:round;stroke-linejoin:round;stroke-miterlimit:4;stroke-dasharray:none;stroke-opacity:1"
         d="m 43.320525,36.894992 c -3.012464,-4.256284 -12.871823,-3.622551 -12.860078,2.77731 0.01175,6.39986 7.694239,7.54366 11.018901,7.461898"
         id="path170382"
         sodipodi:nodetypes="csc" />
      <path
         style="fill:none;stroke:#02284b;stroke-width:2;stroke-linecap:round;stroke-linejoin:round;stroke-miterlimit:4;stroke-dasharray:none;stroke-opacity:1"
         d="m 40.558103,44.903389 c 3.2399,7.748995 15.003807,4.255971 16.71637,-0.251303"
         id="path170384"
         sodipodi:nodetypes="cc" />
      <path
         style="fill:none;stroke:#02284b;stroke-width:2;stroke-linecap:round;stroke-linejoin:round;stroke-miterlimit:4;stroke-dasharray:none;stroke-opacity:1"
         d="M 56.310376,42.838123 C 66.124609,57.478696 73.131174,29.02178 60.771031,34.718125"
         id="path170386"
         sodipodi:nodetypes="cc" />
      <path
         style="fill:none;stroke:#02284b;stroke-width:2;stroke-linecap:round;stroke-linejoin:round;stroke-miterlimit:4;stroke-dasharray:none;stroke-opacity:1"
         d="M 50.578723,35.189488 C 54.542916,28.641586 61.426572,30.544969 63.19821,33.561762"
         id="path170388"
         sodipodi:nodetypes="cc" />
      <path
         style="fill:none;stroke:#02284b;stroke-width:2;stroke-linecap:round;stroke-linejoin:round;stroke-miterlimit:4;stroke-dasharray:none;stroke-opacity:1"
         d="m 39.248051,33.906641 c 0.287544,-8.64894 11.893385,-8.416284 13.720934,-2.368962"
         id="path170390"
         sodipodi:nodetypes="cc" />
    </g>
    <path
       style="display:inline;opacity:1;fill:#000000;fill-opacity:1;stroke:#000000;stroke-width:0.6;stroke-linecap:round;stroke-linejoin:round;stroke-miterlimit:4;stroke-dasharray:none;stroke-opacity:1"
       d="m 137.28816,129.93389 0.27872,-2.02661 -1.53341,0.41087 1.25469,1.61574 -2.39678,-8.94488 -0.22749,2.21778 1.5334,-0.41087 -1.30591,-1.80691"
       id="path170400"
       sodipodi:nodetypes="cccccccc" />
    <path
       style="display:inline;opacity:1;fill:#000000;fill-opacity:1;stroke:#000000;stroke-width:0.6;stroke-linecap:round;stroke-linejoin:round;stroke-miterlimit:4;stroke-dasharray:none;stroke-opacity:1"
       d="m 127.71998,134.96145 -1.88542,-0.79375 v 1.5875 l 1.88542,-0.79375 h -9.26042 l 2.08333,0.79375 v -1.5875 l -2.08333,0.79375"
       id="path170402"
       sodipodi:nodetypes="cccccccc" />
    <path
       style="fill:none;stroke:#2b5d0a;stroke-width:1.2;stroke-linecap:round;stroke-linejoin:round;stroke-miterlimit:4;stroke-dasharray:none;stroke-opacity:1"
       d="m 103.6731,132.02916 c 1.32292,3.96875 -0.52916,4.61458 0,7.26041 2.64584,-0.52916 5.9375,0.52917 8.58334,0 -0.52917,-2.64583 1.32291,-3.29166 0,-7.26041 -2.64584,0.52916 -5.9375,-0.52917 -8.58334,0 z"
       id="path170404"
       sodipodi:nodetypes="ccccc" />
    <g
       id="g170422"
       style="stroke:#02284b;stroke-width:2;stroke-miterlimit:4;stroke-dasharray:none;stroke-opacity:1"
       transform="matrix(0.6,0,0,0.6,73.00561,90.57979)">
      <path
         style="fill:none;stroke:#02284b;stroke-width:2;stroke-linecap:round;stroke-linejoin:round;stroke-miterlimit:4;stroke-dasharray:none;stroke-opacity:1"
         d="m 43.320525,36.894992 c -3.012464,-4.256284 -12.871823,-3.622551 -12.860078,2.77731 0.01175,6.39986 7.694239,7.54366 11.018901,7.461898"
         id="path170412"
         sodipodi:nodetypes="csc" />
      <path
         style="fill:none;stroke:#02284b;stroke-width:2;stroke-linecap:round;stroke-linejoin:round;stroke-miterlimit:4;stroke-dasharray:none;stroke-opacity:1"
         d="m 40.558103,44.903389 c 3.2399,7.748995 15.003807,4.255971 16.71637,-0.251303"
         id="path170414"
         sodipodi:nodetypes="cc" />
      <path
         style="fill:none;stroke:#02284b;stroke-width:2;stroke-linecap:round;stroke-linejoin:round;stroke-miterlimit:4;stroke-dasharray:none;stroke-opacity:1"
         d="M 56.310376,42.838123 C 66.124609,57.478696 73.131174,29.02178 60.771031,34.718125"
         id="path170416"
         sodipodi:nodetypes="cc" />
      <path
         style="fill:none;stroke:#02284b;stroke-width:2;stroke-linecap:round;stroke-linejoin:round;stroke-miterlimit:4;stroke-dasharray:none;stroke-opacity:1"
         d="M 50.578723,35.189488 C 54.542916,28.641586 61.426572,30.544969 63.19821,33.561762"
         id="path170418"
         sodipodi:nodetypes="cc" />
      <path
         style="fill:none;stroke:#02284b;stroke-width:2;stroke-linecap:round;stroke-linejoin:round;stroke-miterlimit:4;stroke-dasharray:none;stroke-opacity:1"
         d="m 39.248051,33.906641 c 0.287544,-8.64894 11.893385,-8.416284 13.720934,-2.368962"
         id="path170420"
         sodipodi:nodetypes="cc" />
    </g>
    <path
       style="display:inline;opacity:1;fill:#000000;fill-opacity:1;stroke:#000000;stroke-width:0.6;stroke-linecap:round;stroke-linejoin:round;stroke-miterlimit:4;stroke-dasharray:none;stroke-opacity:1"
       d="m 107.28816,129.93389 0.27872,-2.02661 -1.53341,0.41087 1.25469,1.61574 -2.39678,-8.94488 -0.22749,2.21778 1.5334,-0.41087 -1.30591,-1.80691"
       id="path170430"
       sodipodi:nodetypes="cccccccc" />
    <path
       style="display:inline;opacity:1;fill:#000000;fill-opacity:1;stroke:#000000;stroke-width:0.6;stroke-linecap:round;stroke-linejoin:round;stroke-miterlimit:4;stroke-dasharray:none;stroke-opacity:1"
       d="m 97.71998,134.96145 -1.88542,-0.79375 v 1.5875 l 1.88542,-0.79375 h -9.26042 l 2.08333,0.79375 v -1.5875 l -2.08333,0.79375"
       id="path170432"
       sodipodi:nodetypes="cccccccc" />
    <path
       style="fill:none;stroke:#2b5d0a;stroke-width:1.2;stroke-linecap:round;stroke-linejoin:round;stroke-miterlimit:4;stroke-dasharray:none;stroke-opacity:1"
       d="m 73.6731,132.02916 c 1.32292,3.96875 -0.52916,4.61458 0,7.26041 2.64584,-0.52916 5.9375,0.52917 8.58334,0 -0.52917,-2.64583 1.32291,-3.29166 0,-7.26041 -2.64584,0.52916 -5.9375,-0.52917 -8.58334,0 z"
       id="path170434"
       sodipodi:nodetypes="ccccc" />
    <g
       id="g170452"
       style="stroke:#02284b;stroke-width:2;stroke-miterlimit:4;stroke-dasharray:none;stroke-opacity:1"
       transform="matrix(0.6,0,0,0.6,43.00561,90.57979)">
      <path
         style="fill:none;stroke:#02284b;stroke-width:2;stroke-linecap:round;stroke-linejoin:round;stroke-miterlimit:4;stroke-dasharray:none;stroke-opacity:1"
         d="m 43.320525,36.894992 c -3.012464,-4.256284 -12.871823,-3.622551 -12.860078,2.77731 0.01175,6.39986 7.694239,7.54366 11.018901,7.461898"
         id="path170442"
         sodipodi:nodetypes="csc" />
      <path
         style="fill:none;stroke:#02284b;stroke-width:2;stroke-linecap:round;stroke-linejoin:round;stroke-miterlimit:4;stroke-dasharray:none;stroke-opacity:1"
         d="m 40.558103,44.903389 c 3.2399,7.748995 15.003807,4.255971 16.71637,-0.251303"
         id="path170444"
         sodipodi:nodetypes="cc" />
      <path
         style="fill:none;stroke:#02284b;stroke-width:2;stroke-linecap:round;stroke-linejoin:round;stroke-miterlimit:4;stroke-dasharray:none;stroke-opacity:1"
         d="M 56.310376,42.838123 C 66.124609,57.478696 73.131174,29.02178 60.771031,34.718125"
         id="path170446"
         sodipodi:nodetypes="cc" />
      <path
         style="fill:none;stroke:#02284b;stroke-width:2;stroke-linecap:round;stroke-linejoin:round;stroke-miterlimit:4;stroke-dasharray:none;stroke-opacity:1"
         d="M 50.578723,35.189488 C 54.542916,28.641586 61.426572,30.544969 63.19821,33.561762"
         id="path170448"
         sodipodi:nodetypes="cc" />
      <path
         style="fill:none;stroke:#02284b;stroke-width:2;stroke-linecap:round;stroke-linejoin:round;stroke-miterlimit:4;stroke-dasharray:none;stroke-opacity:1"
         d="m 39.248051,33.906641 c 0.287544,-8.64894 11.893385,-8.416284 13.720934,-2.368962"
         id="path170450"
         sodipodi:nodetypes="cc" />
    </g>
    <path
       style="display:inline;opacity:1;fill:#000000;fill-opacity:1;stroke:#000000;stroke-width:0.6;stroke-linecap:round;stroke-linejoin:round;stroke-miterlimit:4;stroke-dasharray:none;stroke-opacity:1"
       d="m 77.28816,129.93389 0.27872,-2.02661 -1.53341,0.41087 1.25469,1.61574 -2.39678,-8.94488 -0.22749,2.21778 1.5334,-0.41087 -1.30591,-1.80691"
       id="path170460"
       sodipodi:nodetypes="cccccccc" />
    <path
       style="fill:none;stroke:#2b5d0a;stroke-width:1.2;stroke-linecap:round;stroke-linejoin:round;stroke-miterlimit:4;stroke-dasharray:none;stroke-opacity:1"
       d="m 225.6731,90.029156 c 1.32292,3.96875 -0.52916,4.614583 0,7.260417 2.64584,-0.529167 5.9375,0.529166 8.58334,0 -0.52917,-2.645834 1.32291,-3.291667 0,-7.260417 -2.64584,0.529167 -5.9375,-0.529167 -8.58334,0 z"
       id="path170544"
       sodipodi:nodetypes="ccccc" />
    <g
       id="g170562"
       style="stroke:#02284b;stroke-width:2;stroke-miterlimit:4;stroke-dasharray:none;stroke-opacity:1"
       transform="matrix(0.6,0,0,0.6,186.50561,48.57979)">
      <path
         style="fill:none;stroke:#02284b;stroke-width:2;stroke-linecap:round;stroke-linejoin:round;stroke-miterlimit:4;stroke-dasharray:none;stroke-opacity:1"
         d="m 43.320525,36.894992 c -3.012464,-4.256284 -12.871823,-3.622551 -12.860078,2.77731 0.01175,6.39986 7.694239,7.54366 11.018901,7.461898"
         id="path170552"
         sodipodi:nodetypes="csc" />
      <path
         style="fill:none;stroke:#02284b;stroke-width:2;stroke-linecap:round;stroke-linejoin:round;stroke-miterlimit:4;stroke-dasharray:none;stroke-opacity:1"
         d="m 40.558103,44.903389 c 3.2399,7.748995 15.003807,4.255971 16.71637,-0.251303"
         id="path170554"
         sodipodi:nodetypes="cc" />
      <path
         style="fill:none;stroke:#02284b;stroke-width:2;stroke-linecap:round;stroke-linejoin:round;stroke-miterlimit:4;stroke-dasharray:none;stroke-opacity:1"
         d="M 56.310376,42.838123 C 66.124609,57.478696 73.131174,29.02178 60.771031,34.718125"
         id="path170556"
         sodipodi:nodetypes="cc" />
      <path
         style="fill:none;stroke:#02284b;stroke-width:2;stroke-linecap:round;stroke-linejoin:round;stroke-miterlimit:4;stroke-dasharray:none;stroke-opacity:1"
         d="M 50.578723,35.189488 C 54.542916,28.641586 61.426572,30.544969 63.19821,33.561762"
         id="path170558"
         sodipodi:nodetypes="cc" />
      <path
         style="fill:none;stroke:#02284b;stroke-width:2;stroke-linecap:round;stroke-linejoin:round;stroke-miterlimit:4;stroke-dasharray:none;stroke-opacity:1"
         d="m 39.248051,33.906641 c 0.287544,-8.64894 11.893385,-8.416284 13.720934,-2.368962"
         id="path170560"
         sodipodi:nodetypes="cc" />
    </g>
    <path
       style="display:inline;opacity:1;fill:#000000;fill-opacity:1;stroke:#000000;stroke-width:0.6;stroke-linecap:round;stroke-linejoin:round;stroke-miterlimit:4;stroke-dasharray:none;stroke-opacity:1"
       d="m 226.40575,87.47796 -0.2553,-2.02969 -1.37482,0.79374 1.63012,1.23595 -4.63022,-8.01976 0.35427,2.20109 1.37481,-0.793743 -1.72908,-1.407347"
       id="path170570"
       sodipodi:nodetypes="cccccccc" />
    <g
       id="g170582"
       style="stroke:#02284b;stroke-width:2;stroke-miterlimit:4;stroke-dasharray:none;stroke-opacity:1"
       transform="matrix(0.6,0,0,0.6,215.50561,48.57979)">
      <path
         style="fill:none;stroke:#02284b;stroke-width:2;stroke-linecap:round;stroke-linejoin:round;stroke-miterlimit:4;stroke-dasharray:none;stroke-opacity:1"
         d="m 43.320525,36.894992 c -3.012464,-4.256284 -12.871823,-3.622551 -12.860078,2.77731 0.01175,6.39986 7.694239,7.54366 11.018901,7.461898"
         id="path170572"
         sodipodi:nodetypes="csc" />
      <path
         style="fill:none;stroke:#02284b;stroke-width:2;stroke-linecap:round;stroke-linejoin:round;stroke-miterlimit:4;stroke-dasharray:none;stroke-opacity:1"
         d="m 40.558103,44.903389 c 3.2399,7.748995 15.003807,4.255971 16.71637,-0.251303"
         id="path170574"
         sodipodi:nodetypes="cc" />
      <path
         style="fill:none;stroke:#02284b;stroke-width:2;stroke-linecap:round;stroke-linejoin:round;stroke-miterlimit:4;stroke-dasharray:none;stroke-opacity:1"
         d="M 56.310376,42.838123 C 66.124609,57.478696 73.131174,29.02178 60.771031,34.718125"
         id="path170576"
         sodipodi:nodetypes="cc" />
      <path
         style="fill:none;stroke:#02284b;stroke-width:2;stroke-linecap:round;stroke-linejoin:round;stroke-miterlimit:4;stroke-dasharray:none;stroke-opacity:1"
         d="M 50.578723,35.189488 C 54.542916,28.641586 61.426572,30.544969 63.19821,33.561762"
         id="path170578"
         sodipodi:nodetypes="cc" />
      <path
         style="fill:none;stroke:#02284b;stroke-width:2;stroke-linecap:round;stroke-linejoin:round;stroke-miterlimit:4;stroke-dasharray:none;stroke-opacity:1"
         d="m 39.248051,33.906641 c 0.287544,-8.64894 11.893385,-8.416284 13.720934,-2.368962"
         id="path170580"
         sodipodi:nodetypes="cc" />
    </g>
    <path
       style="display:inline;opacity:1;fill:#000000;fill-opacity:1;stroke:#000000;stroke-width:0.6;stroke-linecap:round;stroke-linejoin:round;stroke-miterlimit:4;stroke-dasharray:none;stroke-opacity:1"
       d="m 233.27553,87.47796 0.2553,-2.02969 1.37482,0.79374 -1.63012,1.23595 4.63022,-8.01976 -0.35427,2.20109 -1.37481,-0.793743 1.72908,-1.407347"
       id="path170590"
       sodipodi:nodetypes="cccccccc" />
  </g>
</svg>
